<mxfile host="app.diagrams.net" modified="2024-07-09T06:45:55.735Z" agent="Mozilla/5.0 (Macintosh; Intel Mac OS X 10_15_7) AppleWebKit/537.36 (KHTML, like Gecko) Chrome/125.0.0.0 Safari/537.36" version="24.6.4" etag="I3-A68FWQ9h-FOInMPxs" type="github">
  <diagram name="第 1 页" id="2EnNEZ7U64cAqI-8AvmX">
    <mxGraphModel>
      <root>
        <mxCell id="0" />
        <mxCell id="1" parent="0" />
      </root>
    </mxGraphModel>
  </diagram>
</mxfile>
